G75*
%MOIN*%
%OFA0B0*%
%FSLAX25Y25*%
%IPPOS*%
%LPD*%
%AMOC8*
5,1,8,0,0,1.08239X$1,22.5*
%
%ADD10C,0.13100*%
%ADD11C,0.05400*%
%ADD12R,0.08000X0.08000*%
%ADD13OC8,0.08000*%
%ADD14C,0.08600*%
%ADD15C,0.08000*%
%ADD16C,0.07100*%
%ADD17C,0.04362*%
D10*
X0016000Y0066167D03*
D11*
X0071000Y0063567D02*
X0071000Y0058767D01*
X0081000Y0058767D02*
X0081000Y0063567D01*
X0091000Y0063567D02*
X0091000Y0058767D01*
X0101000Y0058767D02*
X0101000Y0063567D01*
X0111000Y0063567D02*
X0111000Y0058767D01*
X0121000Y0058767D02*
X0121000Y0063567D01*
X0131000Y0063567D02*
X0131000Y0058767D01*
X0131000Y0033567D02*
X0131000Y0028767D01*
X0121000Y0028767D02*
X0121000Y0033567D01*
X0111000Y0033567D02*
X0111000Y0028767D01*
X0101000Y0028767D02*
X0101000Y0033567D01*
X0091000Y0033567D02*
X0091000Y0028767D01*
X0081000Y0028767D02*
X0081000Y0033567D01*
X0071000Y0033567D02*
X0071000Y0028767D01*
D12*
X0056000Y0071167D03*
D13*
X0046000Y0071167D03*
X0036000Y0071167D03*
X0036000Y0061167D03*
X0046000Y0061167D03*
X0056000Y0061167D03*
D14*
X0151000Y0061167D03*
X0151000Y0051167D03*
X0151000Y0041167D03*
X0151000Y0031167D03*
D15*
X0011000Y0011167D03*
X0021000Y0011167D03*
X0031000Y0011167D03*
X0041000Y0011167D03*
X0051000Y0011167D03*
X0061000Y0011167D03*
X0071000Y0011167D03*
X0081000Y0011167D03*
X0091000Y0011167D03*
X0101000Y0011167D03*
X0111000Y0011167D03*
X0121000Y0011167D03*
X0131000Y0011167D03*
X0141000Y0011167D03*
X0151000Y0011167D03*
X0036300Y0026017D03*
X0010700Y0026017D03*
X0010700Y0043817D03*
X0036300Y0043817D03*
D16*
X0141000Y0041167D03*
X0141000Y0051167D03*
D17*
X0063500Y0054917D03*
X0058500Y0049917D03*
X0051000Y0038667D03*
X0046000Y0028667D03*
M02*
