G75*
%MOIN*%
%OFA0B0*%
%FSLAX25Y25*%
%IPPOS*%
%LPD*%
%AMOC8*
5,1,8,0,0,1.08239X$1,22.5*
%
%ADD10C,0.00500*%
%ADD11C,0.00800*%
%ADD12C,0.00400*%
%ADD13C,0.01000*%
%ADD14C,0.00600*%
%ADD15C,0.00300*%
%ADD16C,0.00200*%
D10*
X0021147Y0032667D02*
X0020396Y0033417D01*
X0021147Y0032667D02*
X0022648Y0032667D01*
X0023399Y0033417D01*
X0023399Y0034168D01*
X0022648Y0034919D01*
X0021147Y0034919D01*
X0020396Y0035669D01*
X0020396Y0036420D01*
X0021147Y0037170D01*
X0022648Y0037170D01*
X0023399Y0036420D01*
X0025000Y0035669D02*
X0026501Y0037170D01*
X0026501Y0032667D01*
X0025000Y0032667D02*
X0028003Y0032667D01*
X0095814Y0025502D02*
X0095814Y0023167D01*
X0098150Y0023167D02*
X0098150Y0025502D01*
X0096982Y0026670D01*
X0095814Y0025502D01*
X0095814Y0024918D02*
X0098150Y0024918D01*
X0099498Y0025502D02*
X0101249Y0025502D01*
X0101833Y0024918D01*
X0101833Y0023167D01*
X0103181Y0023750D02*
X0103765Y0024334D01*
X0105516Y0024334D01*
X0105516Y0024918D02*
X0105516Y0023167D01*
X0103765Y0023167D01*
X0103181Y0023750D01*
X0104932Y0025502D02*
X0105516Y0024918D01*
X0104932Y0025502D02*
X0103765Y0025502D01*
X0106864Y0026670D02*
X0107448Y0026670D01*
X0107448Y0023167D01*
X0106864Y0023167D02*
X0108032Y0023167D01*
X0109319Y0023750D02*
X0109903Y0023167D01*
X0111071Y0023167D01*
X0111655Y0023750D01*
X0111655Y0024918D01*
X0111071Y0025502D01*
X0109903Y0025502D01*
X0109319Y0024918D01*
X0109319Y0023750D01*
X0113002Y0023750D02*
X0113002Y0024918D01*
X0113586Y0025502D01*
X0115338Y0025502D01*
X0115338Y0022583D01*
X0114754Y0021999D01*
X0114170Y0021999D01*
X0113586Y0023167D02*
X0113002Y0023750D01*
X0113586Y0023167D02*
X0115338Y0023167D01*
X0099498Y0023167D02*
X0099498Y0025502D01*
X0136830Y0030267D02*
X0137281Y0029817D01*
X0138181Y0029817D01*
X0138632Y0030267D01*
X0138632Y0031168D01*
X0137731Y0031168D01*
X0136830Y0032069D02*
X0136830Y0030267D01*
X0139777Y0029817D02*
X0139777Y0032519D01*
X0141578Y0029817D01*
X0141578Y0032519D01*
X0142723Y0032519D02*
X0144074Y0032519D01*
X0144525Y0032069D01*
X0144525Y0030267D01*
X0144074Y0029817D01*
X0142723Y0029817D01*
X0142723Y0032519D01*
X0138632Y0032069D02*
X0138181Y0032519D01*
X0137281Y0032519D01*
X0136830Y0032069D01*
X0137731Y0059817D02*
X0138632Y0060717D01*
X0138632Y0062519D01*
X0139777Y0062069D02*
X0139777Y0060267D01*
X0140227Y0059817D01*
X0141128Y0059817D01*
X0141578Y0060267D01*
X0142723Y0060267D02*
X0143174Y0059817D01*
X0144074Y0059817D01*
X0144525Y0060267D01*
X0142723Y0060267D02*
X0142723Y0062069D01*
X0143174Y0062519D01*
X0144074Y0062519D01*
X0144525Y0062069D01*
X0141578Y0062069D02*
X0141128Y0062519D01*
X0140227Y0062519D01*
X0139777Y0062069D01*
X0136830Y0062519D02*
X0136830Y0060717D01*
X0137731Y0059817D01*
X0061000Y0078667D02*
X0061002Y0078737D01*
X0061008Y0078807D01*
X0061018Y0078876D01*
X0061031Y0078945D01*
X0061049Y0079013D01*
X0061070Y0079080D01*
X0061095Y0079145D01*
X0061124Y0079209D01*
X0061156Y0079272D01*
X0061192Y0079332D01*
X0061231Y0079390D01*
X0061273Y0079446D01*
X0061318Y0079500D01*
X0061366Y0079551D01*
X0061417Y0079599D01*
X0061471Y0079644D01*
X0061527Y0079686D01*
X0061585Y0079725D01*
X0061645Y0079761D01*
X0061708Y0079793D01*
X0061772Y0079822D01*
X0061837Y0079847D01*
X0061904Y0079868D01*
X0061972Y0079886D01*
X0062041Y0079899D01*
X0062110Y0079909D01*
X0062180Y0079915D01*
X0062250Y0079917D01*
X0062320Y0079915D01*
X0062390Y0079909D01*
X0062459Y0079899D01*
X0062528Y0079886D01*
X0062596Y0079868D01*
X0062663Y0079847D01*
X0062728Y0079822D01*
X0062792Y0079793D01*
X0062855Y0079761D01*
X0062915Y0079725D01*
X0062973Y0079686D01*
X0063029Y0079644D01*
X0063083Y0079599D01*
X0063134Y0079551D01*
X0063182Y0079500D01*
X0063227Y0079446D01*
X0063269Y0079390D01*
X0063308Y0079332D01*
X0063344Y0079272D01*
X0063376Y0079209D01*
X0063405Y0079145D01*
X0063430Y0079080D01*
X0063451Y0079013D01*
X0063469Y0078945D01*
X0063482Y0078876D01*
X0063492Y0078807D01*
X0063498Y0078737D01*
X0063500Y0078667D01*
X0063498Y0078597D01*
X0063492Y0078527D01*
X0063482Y0078458D01*
X0063469Y0078389D01*
X0063451Y0078321D01*
X0063430Y0078254D01*
X0063405Y0078189D01*
X0063376Y0078125D01*
X0063344Y0078062D01*
X0063308Y0078002D01*
X0063269Y0077944D01*
X0063227Y0077888D01*
X0063182Y0077834D01*
X0063134Y0077783D01*
X0063083Y0077735D01*
X0063029Y0077690D01*
X0062973Y0077648D01*
X0062915Y0077609D01*
X0062855Y0077573D01*
X0062792Y0077541D01*
X0062728Y0077512D01*
X0062663Y0077487D01*
X0062596Y0077466D01*
X0062528Y0077448D01*
X0062459Y0077435D01*
X0062390Y0077425D01*
X0062320Y0077419D01*
X0062250Y0077417D01*
X0062180Y0077419D01*
X0062110Y0077425D01*
X0062041Y0077435D01*
X0061972Y0077448D01*
X0061904Y0077466D01*
X0061837Y0077487D01*
X0061772Y0077512D01*
X0061708Y0077541D01*
X0061645Y0077573D01*
X0061585Y0077609D01*
X0061527Y0077648D01*
X0061471Y0077690D01*
X0061417Y0077735D01*
X0061366Y0077783D01*
X0061318Y0077834D01*
X0061273Y0077888D01*
X0061231Y0077944D01*
X0061192Y0078002D01*
X0061156Y0078062D01*
X0061124Y0078125D01*
X0061095Y0078189D01*
X0061070Y0078254D01*
X0061049Y0078321D01*
X0061031Y0078389D01*
X0061018Y0078458D01*
X0061008Y0078527D01*
X0061002Y0078597D01*
X0061000Y0078667D01*
D11*
X0006000Y0008667D02*
X0008500Y0006167D01*
X0013500Y0006167D01*
X0016000Y0008667D01*
X0018500Y0006167D01*
X0023500Y0006167D01*
X0026000Y0008667D01*
X0028500Y0006167D01*
X0033500Y0006167D01*
X0036000Y0008667D01*
X0038500Y0006167D01*
X0043500Y0006167D01*
X0046000Y0008667D01*
X0048500Y0006167D01*
X0053500Y0006167D01*
X0056000Y0008667D01*
X0058500Y0006167D01*
X0063500Y0006167D01*
X0066000Y0008667D01*
X0068500Y0006167D01*
X0073500Y0006167D01*
X0076000Y0008667D01*
X0078500Y0006167D01*
X0083500Y0006167D01*
X0086000Y0008667D01*
X0088500Y0006167D01*
X0093500Y0006167D01*
X0096000Y0008667D01*
X0098500Y0006167D01*
X0103500Y0006167D01*
X0106000Y0008667D01*
X0108500Y0006167D01*
X0113500Y0006167D01*
X0116000Y0008667D01*
X0118500Y0006167D01*
X0123500Y0006167D01*
X0126000Y0008667D01*
X0128500Y0006167D01*
X0133500Y0006167D01*
X0136000Y0008667D01*
X0138500Y0006167D01*
X0143500Y0006167D01*
X0146000Y0008667D01*
X0148500Y0006167D01*
X0153500Y0006167D01*
X0156000Y0008667D01*
X0156000Y0013667D01*
X0153500Y0016167D01*
X0148500Y0016167D01*
X0146000Y0013667D01*
X0143500Y0016167D01*
X0138500Y0016167D01*
X0136000Y0013667D01*
X0133500Y0016167D01*
X0128500Y0016167D01*
X0126000Y0013667D01*
X0123500Y0016167D01*
X0118500Y0016167D01*
X0116000Y0013667D01*
X0113500Y0016167D01*
X0108500Y0016167D01*
X0106000Y0013667D01*
X0103500Y0016167D01*
X0098500Y0016167D01*
X0096000Y0013667D01*
X0093500Y0016167D01*
X0088500Y0016167D01*
X0086000Y0013667D01*
X0083500Y0016167D01*
X0078500Y0016167D01*
X0076000Y0013667D01*
X0073500Y0016167D01*
X0068500Y0016167D01*
X0066000Y0013667D01*
X0063500Y0016167D01*
X0058500Y0016167D01*
X0056000Y0013667D01*
X0053500Y0016167D01*
X0048500Y0016167D01*
X0046000Y0013667D01*
X0043500Y0016167D01*
X0038500Y0016167D01*
X0036000Y0013667D01*
X0033500Y0016167D01*
X0028500Y0016167D01*
X0026000Y0013667D01*
X0023500Y0016167D01*
X0018500Y0016167D01*
X0016000Y0013667D01*
X0013500Y0016167D01*
X0008500Y0016167D01*
X0006000Y0013667D01*
X0006000Y0008667D01*
X0015000Y0022917D02*
X0032000Y0022917D01*
X0035500Y0030869D02*
X0035500Y0038917D01*
X0016500Y0034917D02*
X0016502Y0035089D01*
X0016508Y0035260D01*
X0016519Y0035432D01*
X0016534Y0035603D01*
X0016553Y0035774D01*
X0016576Y0035944D01*
X0016603Y0036114D01*
X0016635Y0036283D01*
X0016670Y0036451D01*
X0016710Y0036618D01*
X0016754Y0036784D01*
X0016801Y0036949D01*
X0016853Y0037113D01*
X0016909Y0037275D01*
X0016969Y0037436D01*
X0017033Y0037596D01*
X0017101Y0037754D01*
X0017172Y0037910D01*
X0017247Y0038064D01*
X0017327Y0038217D01*
X0017409Y0038367D01*
X0017496Y0038516D01*
X0017586Y0038662D01*
X0017680Y0038806D01*
X0017777Y0038948D01*
X0017878Y0039087D01*
X0017982Y0039224D01*
X0018089Y0039358D01*
X0018200Y0039489D01*
X0018313Y0039618D01*
X0018430Y0039744D01*
X0018550Y0039867D01*
X0018673Y0039987D01*
X0018799Y0040104D01*
X0018928Y0040217D01*
X0019059Y0040328D01*
X0019193Y0040435D01*
X0019330Y0040539D01*
X0019469Y0040640D01*
X0019611Y0040737D01*
X0019755Y0040831D01*
X0019901Y0040921D01*
X0020050Y0041008D01*
X0020200Y0041090D01*
X0020353Y0041170D01*
X0020507Y0041245D01*
X0020663Y0041316D01*
X0020821Y0041384D01*
X0020981Y0041448D01*
X0021142Y0041508D01*
X0021304Y0041564D01*
X0021468Y0041616D01*
X0021633Y0041663D01*
X0021799Y0041707D01*
X0021966Y0041747D01*
X0022134Y0041782D01*
X0022303Y0041814D01*
X0022473Y0041841D01*
X0022643Y0041864D01*
X0022814Y0041883D01*
X0022985Y0041898D01*
X0023157Y0041909D01*
X0023328Y0041915D01*
X0023500Y0041917D01*
X0023672Y0041915D01*
X0023843Y0041909D01*
X0024015Y0041898D01*
X0024186Y0041883D01*
X0024357Y0041864D01*
X0024527Y0041841D01*
X0024697Y0041814D01*
X0024866Y0041782D01*
X0025034Y0041747D01*
X0025201Y0041707D01*
X0025367Y0041663D01*
X0025532Y0041616D01*
X0025696Y0041564D01*
X0025858Y0041508D01*
X0026019Y0041448D01*
X0026179Y0041384D01*
X0026337Y0041316D01*
X0026493Y0041245D01*
X0026647Y0041170D01*
X0026800Y0041090D01*
X0026950Y0041008D01*
X0027099Y0040921D01*
X0027245Y0040831D01*
X0027389Y0040737D01*
X0027531Y0040640D01*
X0027670Y0040539D01*
X0027807Y0040435D01*
X0027941Y0040328D01*
X0028072Y0040217D01*
X0028201Y0040104D01*
X0028327Y0039987D01*
X0028450Y0039867D01*
X0028570Y0039744D01*
X0028687Y0039618D01*
X0028800Y0039489D01*
X0028911Y0039358D01*
X0029018Y0039224D01*
X0029122Y0039087D01*
X0029223Y0038948D01*
X0029320Y0038806D01*
X0029414Y0038662D01*
X0029504Y0038516D01*
X0029591Y0038367D01*
X0029673Y0038217D01*
X0029753Y0038064D01*
X0029828Y0037910D01*
X0029899Y0037754D01*
X0029967Y0037596D01*
X0030031Y0037436D01*
X0030091Y0037275D01*
X0030147Y0037113D01*
X0030199Y0036949D01*
X0030246Y0036784D01*
X0030290Y0036618D01*
X0030330Y0036451D01*
X0030365Y0036283D01*
X0030397Y0036114D01*
X0030424Y0035944D01*
X0030447Y0035774D01*
X0030466Y0035603D01*
X0030481Y0035432D01*
X0030492Y0035260D01*
X0030498Y0035089D01*
X0030500Y0034917D01*
X0030498Y0034745D01*
X0030492Y0034574D01*
X0030481Y0034402D01*
X0030466Y0034231D01*
X0030447Y0034060D01*
X0030424Y0033890D01*
X0030397Y0033720D01*
X0030365Y0033551D01*
X0030330Y0033383D01*
X0030290Y0033216D01*
X0030246Y0033050D01*
X0030199Y0032885D01*
X0030147Y0032721D01*
X0030091Y0032559D01*
X0030031Y0032398D01*
X0029967Y0032238D01*
X0029899Y0032080D01*
X0029828Y0031924D01*
X0029753Y0031770D01*
X0029673Y0031617D01*
X0029591Y0031467D01*
X0029504Y0031318D01*
X0029414Y0031172D01*
X0029320Y0031028D01*
X0029223Y0030886D01*
X0029122Y0030747D01*
X0029018Y0030610D01*
X0028911Y0030476D01*
X0028800Y0030345D01*
X0028687Y0030216D01*
X0028570Y0030090D01*
X0028450Y0029967D01*
X0028327Y0029847D01*
X0028201Y0029730D01*
X0028072Y0029617D01*
X0027941Y0029506D01*
X0027807Y0029399D01*
X0027670Y0029295D01*
X0027531Y0029194D01*
X0027389Y0029097D01*
X0027245Y0029003D01*
X0027099Y0028913D01*
X0026950Y0028826D01*
X0026800Y0028744D01*
X0026647Y0028664D01*
X0026493Y0028589D01*
X0026337Y0028518D01*
X0026179Y0028450D01*
X0026019Y0028386D01*
X0025858Y0028326D01*
X0025696Y0028270D01*
X0025532Y0028218D01*
X0025367Y0028171D01*
X0025201Y0028127D01*
X0025034Y0028087D01*
X0024866Y0028052D01*
X0024697Y0028020D01*
X0024527Y0027993D01*
X0024357Y0027970D01*
X0024186Y0027951D01*
X0024015Y0027936D01*
X0023843Y0027925D01*
X0023672Y0027919D01*
X0023500Y0027917D01*
X0023328Y0027919D01*
X0023157Y0027925D01*
X0022985Y0027936D01*
X0022814Y0027951D01*
X0022643Y0027970D01*
X0022473Y0027993D01*
X0022303Y0028020D01*
X0022134Y0028052D01*
X0021966Y0028087D01*
X0021799Y0028127D01*
X0021633Y0028171D01*
X0021468Y0028218D01*
X0021304Y0028270D01*
X0021142Y0028326D01*
X0020981Y0028386D01*
X0020821Y0028450D01*
X0020663Y0028518D01*
X0020507Y0028589D01*
X0020353Y0028664D01*
X0020200Y0028744D01*
X0020050Y0028826D01*
X0019901Y0028913D01*
X0019755Y0029003D01*
X0019611Y0029097D01*
X0019469Y0029194D01*
X0019330Y0029295D01*
X0019193Y0029399D01*
X0019059Y0029506D01*
X0018928Y0029617D01*
X0018799Y0029730D01*
X0018673Y0029847D01*
X0018550Y0029967D01*
X0018430Y0030090D01*
X0018313Y0030216D01*
X0018200Y0030345D01*
X0018089Y0030476D01*
X0017982Y0030610D01*
X0017878Y0030747D01*
X0017777Y0030886D01*
X0017680Y0031028D01*
X0017586Y0031172D01*
X0017496Y0031318D01*
X0017409Y0031467D01*
X0017327Y0031617D01*
X0017247Y0031770D01*
X0017172Y0031924D01*
X0017101Y0032080D01*
X0017033Y0032238D01*
X0016969Y0032398D01*
X0016909Y0032559D01*
X0016853Y0032721D01*
X0016801Y0032885D01*
X0016754Y0033050D01*
X0016710Y0033216D01*
X0016670Y0033383D01*
X0016635Y0033551D01*
X0016603Y0033720D01*
X0016576Y0033890D01*
X0016553Y0034060D01*
X0016534Y0034231D01*
X0016519Y0034402D01*
X0016508Y0034574D01*
X0016502Y0034745D01*
X0016500Y0034917D01*
X0011500Y0030988D02*
X0011500Y0038917D01*
X0015000Y0046917D02*
X0032000Y0046917D01*
X0066000Y0057667D02*
X0066000Y0034667D01*
X0067000Y0034667D01*
X0074700Y0034667D02*
X0077300Y0034667D01*
X0084700Y0034667D02*
X0087300Y0034667D01*
X0094700Y0034667D02*
X0097300Y0034667D01*
X0104700Y0034667D02*
X0107300Y0034667D01*
X0114700Y0034667D02*
X0117300Y0034667D01*
X0124700Y0034667D02*
X0127300Y0034667D01*
X0135000Y0034667D02*
X0136000Y0034667D01*
X0136000Y0042167D01*
X0135874Y0042169D01*
X0135749Y0042175D01*
X0135624Y0042185D01*
X0135499Y0042199D01*
X0135374Y0042216D01*
X0135250Y0042238D01*
X0135127Y0042263D01*
X0135005Y0042293D01*
X0134884Y0042326D01*
X0134764Y0042363D01*
X0134645Y0042403D01*
X0134528Y0042448D01*
X0134411Y0042496D01*
X0134297Y0042548D01*
X0134184Y0042603D01*
X0134073Y0042662D01*
X0133964Y0042724D01*
X0133857Y0042790D01*
X0133752Y0042859D01*
X0133649Y0042931D01*
X0133548Y0043006D01*
X0133450Y0043085D01*
X0133355Y0043167D01*
X0133262Y0043251D01*
X0133172Y0043339D01*
X0133084Y0043429D01*
X0133000Y0043522D01*
X0132918Y0043617D01*
X0132839Y0043715D01*
X0132764Y0043816D01*
X0132692Y0043919D01*
X0132623Y0044024D01*
X0132557Y0044131D01*
X0132495Y0044240D01*
X0132436Y0044351D01*
X0132381Y0044464D01*
X0132329Y0044578D01*
X0132281Y0044695D01*
X0132236Y0044812D01*
X0132196Y0044931D01*
X0132159Y0045051D01*
X0132126Y0045172D01*
X0132096Y0045294D01*
X0132071Y0045417D01*
X0132049Y0045541D01*
X0132032Y0045666D01*
X0132018Y0045791D01*
X0132008Y0045916D01*
X0132002Y0046041D01*
X0132000Y0046167D01*
X0132002Y0046293D01*
X0132008Y0046418D01*
X0132018Y0046543D01*
X0132032Y0046668D01*
X0132049Y0046793D01*
X0132071Y0046917D01*
X0132096Y0047040D01*
X0132126Y0047162D01*
X0132159Y0047283D01*
X0132196Y0047403D01*
X0132236Y0047522D01*
X0132281Y0047639D01*
X0132329Y0047756D01*
X0132381Y0047870D01*
X0132436Y0047983D01*
X0132495Y0048094D01*
X0132557Y0048203D01*
X0132623Y0048310D01*
X0132692Y0048415D01*
X0132764Y0048518D01*
X0132839Y0048619D01*
X0132918Y0048717D01*
X0133000Y0048812D01*
X0133084Y0048905D01*
X0133172Y0048995D01*
X0133262Y0049083D01*
X0133355Y0049167D01*
X0133450Y0049249D01*
X0133548Y0049328D01*
X0133649Y0049403D01*
X0133752Y0049475D01*
X0133857Y0049544D01*
X0133964Y0049610D01*
X0134073Y0049672D01*
X0134184Y0049731D01*
X0134297Y0049786D01*
X0134411Y0049838D01*
X0134528Y0049886D01*
X0134645Y0049931D01*
X0134764Y0049971D01*
X0134884Y0050008D01*
X0135005Y0050041D01*
X0135127Y0050071D01*
X0135250Y0050096D01*
X0135374Y0050118D01*
X0135499Y0050135D01*
X0135624Y0050149D01*
X0135749Y0050159D01*
X0135874Y0050165D01*
X0136000Y0050167D01*
X0136000Y0057667D01*
X0135000Y0057667D01*
X0127300Y0057667D02*
X0124700Y0057667D01*
X0117300Y0057667D02*
X0114700Y0057667D01*
X0107300Y0057667D02*
X0104700Y0057667D01*
X0097300Y0057667D02*
X0094700Y0057667D01*
X0087300Y0057667D02*
X0084700Y0057667D01*
X0077300Y0057667D02*
X0074700Y0057667D01*
X0067000Y0057667D02*
X0066000Y0057667D01*
X0084519Y0046869D02*
X0085920Y0048270D01*
X0087321Y0046869D01*
X0087321Y0044067D01*
X0084519Y0044067D02*
X0084519Y0046869D01*
X0084519Y0046168D02*
X0087321Y0046168D01*
X0089123Y0048270D02*
X0091925Y0048270D01*
X0090524Y0048270D02*
X0090524Y0044067D01*
X0094427Y0044767D02*
X0095128Y0044067D01*
X0094427Y0044767D02*
X0094427Y0047570D01*
X0093727Y0046869D02*
X0095128Y0046869D01*
X0096796Y0046869D02*
X0097497Y0046869D01*
X0097497Y0044067D01*
X0098197Y0044067D02*
X0096796Y0044067D01*
X0099865Y0044067D02*
X0099865Y0046869D01*
X0101967Y0046869D01*
X0102668Y0046168D01*
X0102668Y0044067D01*
X0104469Y0044767D02*
X0105170Y0044067D01*
X0107272Y0044067D01*
X0107272Y0043366D02*
X0106571Y0042665D01*
X0105870Y0042665D01*
X0107272Y0043366D02*
X0107272Y0046869D01*
X0109073Y0046869D02*
X0109774Y0046168D01*
X0111175Y0046168D01*
X0111876Y0045468D01*
X0111876Y0044767D01*
X0111175Y0044067D01*
X0109774Y0044067D01*
X0109073Y0044767D01*
X0109073Y0045468D01*
X0109774Y0046168D01*
X0109073Y0046869D02*
X0109073Y0047570D01*
X0109774Y0048270D01*
X0111175Y0048270D01*
X0111876Y0047570D01*
X0111876Y0046869D01*
X0111175Y0046168D01*
X0113677Y0046168D02*
X0116479Y0046168D01*
X0115779Y0048270D02*
X0113677Y0046168D01*
X0115779Y0044067D02*
X0115779Y0048270D01*
X0104469Y0046869D02*
X0104469Y0044767D01*
X0097497Y0048270D02*
X0097497Y0048971D01*
X0138500Y0046167D02*
X0143500Y0046167D01*
X0122289Y0070317D02*
X0120887Y0070317D01*
X0120187Y0071017D01*
X0120187Y0072418D01*
X0120887Y0073119D01*
X0122289Y0073119D01*
X0122989Y0072418D01*
X0122989Y0071718D01*
X0120187Y0071718D01*
X0118519Y0070317D02*
X0117118Y0070317D01*
X0117818Y0070317D02*
X0117818Y0074520D01*
X0117118Y0074520D01*
X0115316Y0072418D02*
X0114615Y0073119D01*
X0112514Y0073119D01*
X0110712Y0072418D02*
X0110712Y0070317D01*
X0108610Y0070317D01*
X0107910Y0071017D01*
X0108610Y0071718D01*
X0110712Y0071718D01*
X0110712Y0072418D02*
X0110012Y0073119D01*
X0108610Y0073119D01*
X0106175Y0073119D02*
X0104073Y0071718D01*
X0106175Y0070317D01*
X0104073Y0070317D02*
X0104073Y0074520D01*
X0102272Y0073119D02*
X0100170Y0073119D01*
X0099469Y0072418D01*
X0099469Y0071017D01*
X0100170Y0070317D01*
X0102272Y0070317D01*
X0097668Y0070317D02*
X0097668Y0072418D01*
X0096967Y0073119D01*
X0095566Y0073119D01*
X0095566Y0071718D02*
X0097668Y0071718D01*
X0097668Y0070317D02*
X0095566Y0070317D01*
X0094865Y0071017D01*
X0095566Y0071718D01*
X0093064Y0072418D02*
X0090261Y0072418D01*
X0090261Y0070317D02*
X0090261Y0074520D01*
X0093064Y0074520D02*
X0093064Y0070317D01*
X0083923Y0073119D02*
X0083222Y0073119D01*
X0081821Y0071718D01*
X0081821Y0070317D02*
X0081821Y0073119D01*
X0080019Y0072418D02*
X0080019Y0071718D01*
X0077217Y0071718D01*
X0077217Y0072418D02*
X0077217Y0071017D01*
X0077918Y0070317D01*
X0079319Y0070317D01*
X0075415Y0071017D02*
X0074715Y0071718D01*
X0073314Y0071718D01*
X0072613Y0072418D01*
X0073314Y0073119D01*
X0075415Y0073119D01*
X0077217Y0072418D02*
X0077918Y0073119D01*
X0079319Y0073119D01*
X0080019Y0072418D01*
X0075415Y0071017D02*
X0074715Y0070317D01*
X0072613Y0070317D01*
X0070811Y0071017D02*
X0070811Y0074520D01*
X0068009Y0074520D02*
X0068009Y0071017D01*
X0068710Y0070317D01*
X0070111Y0070317D01*
X0070811Y0071017D01*
X0112514Y0070317D02*
X0114615Y0070317D01*
X0115316Y0071017D01*
X0115316Y0072418D01*
X0112514Y0074520D02*
X0112514Y0070317D01*
D12*
X0126621Y0072617D02*
X0126621Y0077221D01*
X0128923Y0077221D01*
X0129690Y0076453D01*
X0129690Y0074919D01*
X0128923Y0074151D01*
X0126621Y0074151D01*
X0131225Y0072617D02*
X0132759Y0072617D01*
X0131992Y0072617D02*
X0131992Y0075686D01*
X0131225Y0075686D01*
X0131992Y0077221D02*
X0131992Y0077988D01*
X0134294Y0075686D02*
X0137363Y0072617D01*
X0138898Y0072617D02*
X0140433Y0072617D01*
X0139665Y0072617D02*
X0139665Y0075686D01*
X0138898Y0075686D01*
X0137363Y0075686D02*
X0134294Y0072617D01*
X0139665Y0077221D02*
X0139665Y0077988D01*
X0141967Y0074919D02*
X0142735Y0075686D01*
X0144269Y0075686D01*
X0145037Y0074919D01*
X0145037Y0074151D01*
X0141967Y0074151D01*
X0141967Y0073384D02*
X0141967Y0074919D01*
X0141967Y0073384D02*
X0142735Y0072617D01*
X0144269Y0072617D01*
X0146571Y0073384D02*
X0146571Y0074151D01*
X0147339Y0074919D01*
X0148873Y0074919D01*
X0149640Y0074151D01*
X0149640Y0073384D01*
X0148873Y0072617D01*
X0147339Y0072617D01*
X0146571Y0073384D01*
X0147339Y0074919D02*
X0146571Y0075686D01*
X0146571Y0076453D01*
X0147339Y0077221D01*
X0148873Y0077221D01*
X0149640Y0076453D01*
X0149640Y0075686D01*
X0148873Y0074919D01*
X0151175Y0074919D02*
X0154244Y0074919D01*
X0153477Y0077221D02*
X0151175Y0074919D01*
X0153477Y0072617D02*
X0153477Y0077221D01*
X0140433Y0021453D02*
X0140433Y0018384D01*
X0138898Y0019919D02*
X0141967Y0019919D01*
X0148898Y0019919D02*
X0151967Y0019919D01*
X0069542Y0005069D02*
X0069542Y0002267D01*
X0067673Y0002267D02*
X0067673Y0005069D01*
X0068607Y0004135D01*
X0069542Y0005069D01*
X0066595Y0005069D02*
X0066595Y0002267D01*
X0065661Y0003201D01*
X0064727Y0002267D01*
X0064727Y0005069D01*
X0063648Y0004602D02*
X0063181Y0005069D01*
X0061780Y0005069D01*
X0061780Y0002267D01*
X0061780Y0003201D02*
X0063181Y0003201D01*
X0063648Y0003668D01*
X0063648Y0004602D01*
X0021967Y0019919D02*
X0018898Y0019919D01*
X0020433Y0021453D02*
X0020433Y0018384D01*
X0011967Y0019919D02*
X0008898Y0019919D01*
D13*
X0046000Y0008667D02*
X0046000Y0003667D01*
X0058500Y0003667D01*
X0072250Y0003667D02*
X0086000Y0003667D01*
X0086000Y0008667D01*
X0056000Y0013667D02*
X0056000Y0024917D01*
X0093500Y0024917D01*
X0117250Y0024917D02*
X0136000Y0024917D01*
X0136000Y0013667D01*
D14*
X0027959Y0049467D02*
X0027959Y0052870D01*
X0026825Y0052870D02*
X0029093Y0052870D01*
X0025410Y0052870D02*
X0023142Y0052870D01*
X0023142Y0049467D01*
X0025410Y0049467D01*
X0024276Y0051168D02*
X0023142Y0051168D01*
X0021727Y0050601D02*
X0021727Y0050034D01*
X0021160Y0049467D01*
X0020026Y0049467D01*
X0019458Y0050034D01*
X0018044Y0049467D02*
X0015775Y0049467D01*
X0015775Y0052870D01*
X0018044Y0052870D01*
X0019458Y0052302D02*
X0019458Y0051735D01*
X0020026Y0051168D01*
X0021160Y0051168D01*
X0021727Y0050601D01*
X0021727Y0052302D02*
X0021160Y0052870D01*
X0020026Y0052870D01*
X0019458Y0052302D01*
X0016910Y0051168D02*
X0015775Y0051168D01*
X0014361Y0051168D02*
X0013794Y0050601D01*
X0012092Y0050601D01*
X0012092Y0049467D02*
X0012092Y0052870D01*
X0013794Y0052870D01*
X0014361Y0052302D01*
X0014361Y0051168D01*
X0013226Y0050601D02*
X0014361Y0049467D01*
D15*
X0039398Y0050520D02*
X0040632Y0050520D01*
X0040015Y0050520D02*
X0040015Y0046817D01*
X0039398Y0046817D02*
X0040632Y0046817D01*
X0041853Y0047434D02*
X0042470Y0046817D01*
X0043705Y0046817D01*
X0044322Y0047434D01*
X0045536Y0047434D02*
X0046153Y0046817D01*
X0047388Y0046817D01*
X0048005Y0047434D01*
X0048005Y0048051D01*
X0047388Y0048668D01*
X0046153Y0048668D01*
X0045536Y0049285D01*
X0045536Y0049903D01*
X0046153Y0050520D01*
X0047388Y0050520D01*
X0048005Y0049903D01*
X0049219Y0050520D02*
X0051071Y0050520D01*
X0051688Y0049903D01*
X0051688Y0048668D01*
X0051071Y0048051D01*
X0049219Y0048051D01*
X0049219Y0046817D02*
X0049219Y0050520D01*
X0044322Y0049903D02*
X0043705Y0050520D01*
X0042470Y0050520D01*
X0041853Y0049903D01*
X0041853Y0047434D01*
X0041160Y0021270D02*
X0039926Y0021270D01*
X0039308Y0020653D01*
X0039308Y0020035D01*
X0039926Y0019418D01*
X0041777Y0019418D01*
X0041777Y0018184D02*
X0041777Y0020653D01*
X0041160Y0021270D01*
X0041777Y0018184D02*
X0041160Y0017567D01*
X0039926Y0017567D01*
X0039308Y0018184D01*
X0033619Y0018184D02*
X0033002Y0017567D01*
X0031767Y0017567D01*
X0031150Y0018184D01*
X0033619Y0020653D01*
X0033619Y0018184D01*
X0031150Y0018184D02*
X0031150Y0020653D01*
X0031767Y0021270D01*
X0033002Y0021270D01*
X0033619Y0020653D01*
X0028701Y0021270D02*
X0028701Y0017567D01*
X0027467Y0017567D02*
X0029936Y0017567D01*
X0027467Y0020035D02*
X0028701Y0021270D01*
X0049308Y0020653D02*
X0049308Y0020035D01*
X0049926Y0019418D01*
X0051160Y0019418D01*
X0051777Y0018801D01*
X0051777Y0018184D01*
X0051160Y0017567D01*
X0049926Y0017567D01*
X0049308Y0018184D01*
X0049308Y0018801D01*
X0049926Y0019418D01*
X0051160Y0019418D02*
X0051777Y0020035D01*
X0051777Y0020653D01*
X0051160Y0021270D01*
X0049926Y0021270D01*
X0049308Y0020653D01*
X0059308Y0021270D02*
X0061777Y0021270D01*
X0061777Y0020653D01*
X0059308Y0018184D01*
X0059308Y0017567D01*
X0069308Y0018184D02*
X0069926Y0017567D01*
X0071160Y0017567D01*
X0071777Y0018184D01*
X0071777Y0018801D01*
X0071160Y0019418D01*
X0069308Y0019418D01*
X0069308Y0018184D01*
X0069308Y0019418D02*
X0070543Y0020653D01*
X0071777Y0021270D01*
X0079308Y0021270D02*
X0079308Y0019418D01*
X0080543Y0020035D01*
X0081160Y0020035D01*
X0081777Y0019418D01*
X0081777Y0018184D01*
X0081160Y0017567D01*
X0079926Y0017567D01*
X0079308Y0018184D01*
X0079308Y0021270D02*
X0081777Y0021270D01*
X0089308Y0019418D02*
X0091777Y0019418D01*
X0091160Y0021270D02*
X0089308Y0019418D01*
X0091160Y0017567D02*
X0091160Y0021270D01*
X0099308Y0020653D02*
X0099926Y0021270D01*
X0101160Y0021270D01*
X0101777Y0020653D01*
X0101777Y0020035D01*
X0101160Y0019418D01*
X0101777Y0018801D01*
X0101777Y0018184D01*
X0101160Y0017567D01*
X0099926Y0017567D01*
X0099308Y0018184D01*
X0100543Y0019418D02*
X0101160Y0019418D01*
X0109308Y0020653D02*
X0109926Y0021270D01*
X0111160Y0021270D01*
X0111777Y0020653D01*
X0111777Y0020035D01*
X0109308Y0017567D01*
X0111777Y0017567D01*
X0119308Y0017567D02*
X0121777Y0017567D01*
X0120543Y0017567D02*
X0120543Y0021270D01*
X0119308Y0020035D01*
X0129308Y0020653D02*
X0129308Y0018184D01*
X0131777Y0020653D01*
X0131777Y0018184D01*
X0131160Y0017567D01*
X0129926Y0017567D01*
X0129308Y0018184D01*
X0129308Y0020653D02*
X0129926Y0021270D01*
X0131160Y0021270D01*
X0131777Y0020653D01*
X0132355Y0067217D02*
X0132355Y0069152D01*
X0133323Y0069152D02*
X0133806Y0069152D01*
X0133323Y0069152D02*
X0132355Y0068184D01*
X0131343Y0068184D02*
X0131343Y0067700D01*
X0130860Y0067217D01*
X0129409Y0067217D01*
X0129409Y0070119D01*
X0130860Y0070119D01*
X0131343Y0069635D01*
X0131343Y0069152D01*
X0130860Y0068668D01*
X0129409Y0068668D01*
X0130860Y0068668D02*
X0131343Y0068184D01*
X0134810Y0068184D02*
X0136745Y0068184D01*
X0136745Y0068668D01*
X0136262Y0069152D01*
X0135294Y0069152D01*
X0134810Y0068668D01*
X0134810Y0067700D01*
X0135294Y0067217D01*
X0136262Y0067217D01*
X0137757Y0067700D02*
X0138241Y0068184D01*
X0139692Y0068184D01*
X0139692Y0068668D02*
X0139692Y0067217D01*
X0138241Y0067217D01*
X0137757Y0067700D01*
X0139208Y0069152D02*
X0139692Y0068668D01*
X0139208Y0069152D02*
X0138241Y0069152D01*
X0140703Y0068668D02*
X0141187Y0069152D01*
X0142638Y0069152D01*
X0142638Y0070119D02*
X0142638Y0067217D01*
X0141187Y0067217D01*
X0140703Y0067700D01*
X0140703Y0068668D01*
X0143650Y0069152D02*
X0145101Y0069152D01*
X0145585Y0068668D01*
X0145585Y0067700D01*
X0145101Y0067217D01*
X0143650Y0067217D01*
X0143650Y0070119D01*
X0146597Y0068668D02*
X0146597Y0067700D01*
X0147080Y0067217D01*
X0148048Y0067217D01*
X0148531Y0067700D01*
X0148531Y0068668D01*
X0148048Y0069152D01*
X0147080Y0069152D01*
X0146597Y0068668D01*
X0149543Y0067700D02*
X0150027Y0067217D01*
X0151478Y0067217D01*
X0151478Y0068668D01*
X0150994Y0069152D01*
X0150027Y0069152D01*
X0150027Y0068184D02*
X0151478Y0068184D01*
X0152490Y0068184D02*
X0153457Y0069152D01*
X0153941Y0069152D01*
X0154945Y0068668D02*
X0155429Y0069152D01*
X0156880Y0069152D01*
X0156880Y0070119D02*
X0156880Y0067217D01*
X0155429Y0067217D01*
X0154945Y0067700D01*
X0154945Y0068668D01*
X0152490Y0069152D02*
X0152490Y0067217D01*
X0150027Y0068184D02*
X0149543Y0067700D01*
D16*
X0059409Y0077884D02*
X0059409Y0079352D01*
X0059042Y0079719D01*
X0058309Y0079719D01*
X0057942Y0079352D01*
X0057942Y0077884D01*
X0058309Y0077517D01*
X0059042Y0077517D01*
X0059409Y0077884D01*
X0057200Y0077884D02*
X0057200Y0078251D01*
X0056833Y0078618D01*
X0056099Y0078618D01*
X0055732Y0078985D01*
X0055732Y0079352D01*
X0056099Y0079719D01*
X0056833Y0079719D01*
X0057200Y0079352D01*
X0057200Y0077884D02*
X0056833Y0077517D01*
X0056099Y0077517D01*
X0055732Y0077884D01*
X0054992Y0077517D02*
X0054258Y0077517D01*
X0054625Y0077517D02*
X0054625Y0079719D01*
X0054258Y0079719D02*
X0054992Y0079719D01*
X0053516Y0079719D02*
X0053516Y0077517D01*
X0052049Y0077517D02*
X0052049Y0079719D01*
X0052782Y0078985D01*
X0053516Y0079719D01*
X0048673Y0079719D02*
X0047205Y0078251D01*
X0047572Y0078618D02*
X0048673Y0077517D01*
X0047205Y0077517D02*
X0047205Y0079719D01*
X0046463Y0079352D02*
X0046096Y0079719D01*
X0045362Y0079719D01*
X0044995Y0079352D01*
X0044995Y0077884D01*
X0045362Y0077517D01*
X0046096Y0077517D01*
X0046463Y0077884D01*
X0044253Y0077884D02*
X0044253Y0078251D01*
X0043886Y0078618D01*
X0043152Y0078618D01*
X0042785Y0078985D01*
X0042785Y0079352D01*
X0043152Y0079719D01*
X0043886Y0079719D01*
X0044253Y0079352D01*
X0044253Y0077884D02*
X0043886Y0077517D01*
X0043152Y0077517D01*
X0042785Y0077884D01*
X0038673Y0079719D02*
X0037205Y0079719D01*
X0037939Y0079719D02*
X0037939Y0077517D01*
X0036463Y0077884D02*
X0036463Y0078251D01*
X0036096Y0078618D01*
X0035362Y0078618D01*
X0034995Y0078985D01*
X0034995Y0079352D01*
X0035362Y0079719D01*
X0036096Y0079719D01*
X0036463Y0079352D01*
X0034253Y0079352D02*
X0034253Y0078618D01*
X0033886Y0078251D01*
X0032785Y0078251D01*
X0033519Y0078251D02*
X0034253Y0077517D01*
X0034995Y0077884D02*
X0035362Y0077517D01*
X0036096Y0077517D01*
X0036463Y0077884D01*
X0034253Y0079352D02*
X0033886Y0079719D01*
X0032785Y0079719D01*
X0032785Y0077517D01*
X0033152Y0054819D02*
X0032785Y0054452D01*
X0032785Y0052984D01*
X0033152Y0052617D01*
X0033886Y0052617D01*
X0034253Y0052984D01*
X0034253Y0053718D01*
X0033519Y0053718D01*
X0034253Y0054452D02*
X0033886Y0054819D01*
X0033152Y0054819D01*
X0034995Y0054819D02*
X0036463Y0052617D01*
X0036463Y0054819D01*
X0037205Y0054819D02*
X0038306Y0054819D01*
X0038673Y0054452D01*
X0038673Y0052984D01*
X0038306Y0052617D01*
X0037205Y0052617D01*
X0037205Y0054819D01*
X0034995Y0054819D02*
X0034995Y0052617D01*
X0042049Y0052617D02*
X0042049Y0054819D01*
X0042782Y0054085D01*
X0043516Y0054819D01*
X0043516Y0052617D01*
X0044258Y0052984D02*
X0044625Y0052617D01*
X0045359Y0052617D01*
X0045726Y0052984D01*
X0045726Y0054452D01*
X0045359Y0054819D01*
X0044625Y0054819D01*
X0044258Y0054452D01*
X0044258Y0052984D01*
X0046468Y0052984D02*
X0046835Y0052617D01*
X0047569Y0052617D01*
X0047936Y0052984D01*
X0047936Y0053351D01*
X0047569Y0053718D01*
X0046835Y0053718D01*
X0046468Y0054085D01*
X0046468Y0054452D01*
X0046835Y0054819D01*
X0047569Y0054819D01*
X0047936Y0054452D01*
X0048678Y0054819D02*
X0049412Y0054819D01*
X0049045Y0054819D02*
X0049045Y0052617D01*
X0048678Y0052617D02*
X0049412Y0052617D01*
X0053890Y0053718D02*
X0055358Y0053718D01*
X0056100Y0053351D02*
X0056834Y0052617D01*
X0057568Y0053351D01*
X0057568Y0054819D01*
X0056100Y0054819D02*
X0056100Y0053351D01*
X0054624Y0052984D02*
X0054624Y0054452D01*
M02*
