G75*
%MOIN*%
%OFA0B0*%
%FSLAX25Y25*%
%IPPOS*%
%LPD*%
%AMOC8*
5,1,8,0,0,1.08239X$1,22.5*
%
%ADD10C,0.00800*%
D10*
X0087273Y0039067D02*
X0087273Y0043270D01*
X0089375Y0041168D01*
X0086572Y0041168D01*
X0091176Y0040468D02*
X0091176Y0039767D01*
X0091877Y0039067D01*
X0093278Y0039067D01*
X0093979Y0039767D01*
X0093979Y0040468D01*
X0093278Y0041168D01*
X0091877Y0041168D01*
X0091176Y0040468D01*
X0091877Y0041168D02*
X0091176Y0041869D01*
X0091176Y0042570D01*
X0091877Y0043270D01*
X0093278Y0043270D01*
X0093979Y0042570D01*
X0093979Y0041869D01*
X0093278Y0041168D01*
X0095780Y0041168D02*
X0095780Y0040468D01*
X0098583Y0040468D01*
X0098583Y0041168D02*
X0098583Y0039767D01*
X0097882Y0039067D01*
X0096481Y0039067D01*
X0100251Y0039067D02*
X0101652Y0039067D01*
X0100951Y0039067D02*
X0100951Y0041869D01*
X0101652Y0041869D01*
X0103454Y0041869D02*
X0106256Y0039067D01*
X0107924Y0039067D02*
X0109325Y0039067D01*
X0108625Y0039067D02*
X0108625Y0041869D01*
X0109325Y0041869D01*
X0111127Y0042570D02*
X0111127Y0041168D01*
X0111827Y0040468D01*
X0113929Y0040468D01*
X0113929Y0039067D02*
X0113929Y0043270D01*
X0111827Y0043270D01*
X0111127Y0042570D01*
X0108625Y0043270D02*
X0108625Y0043971D01*
X0106256Y0041869D02*
X0103454Y0039067D01*
X0098583Y0041168D02*
X0097882Y0041869D01*
X0096481Y0041869D01*
X0095780Y0041168D01*
X0100951Y0043270D02*
X0100951Y0043971D01*
X0100184Y0049067D02*
X0098082Y0049067D01*
X0098082Y0051168D01*
X0098783Y0051869D01*
X0100184Y0051869D01*
X0100184Y0050468D02*
X0098082Y0050468D01*
X0096281Y0051168D02*
X0096281Y0049767D01*
X0095580Y0049067D01*
X0093478Y0049067D01*
X0091677Y0049067D02*
X0091677Y0053270D01*
X0093478Y0051869D02*
X0095580Y0051869D01*
X0096281Y0051168D01*
X0100184Y0050468D02*
X0100885Y0049767D01*
X0100184Y0049067D01*
X0102686Y0049067D02*
X0102686Y0053270D01*
X0102686Y0051168D02*
X0105489Y0051168D01*
X0105489Y0049067D02*
X0105489Y0053270D01*
X0111827Y0051869D02*
X0112528Y0051869D01*
X0113929Y0050468D01*
X0115731Y0050468D02*
X0115731Y0051168D01*
X0116431Y0051869D01*
X0117832Y0051869D01*
X0118533Y0051168D01*
X0118533Y0049767D01*
X0117832Y0049067D01*
X0116431Y0049067D01*
X0113929Y0049067D02*
X0113929Y0051869D01*
X0115731Y0050468D02*
X0118533Y0050468D01*
X0120335Y0049767D02*
X0121035Y0050468D01*
X0122436Y0050468D01*
X0123137Y0051168D01*
X0122436Y0051869D01*
X0120335Y0051869D01*
X0120335Y0049767D02*
X0121035Y0049067D01*
X0123137Y0049067D01*
X0124939Y0049767D02*
X0124939Y0053270D01*
X0127741Y0053270D02*
X0127741Y0049767D01*
X0127040Y0049067D01*
X0125639Y0049067D01*
X0124939Y0049767D01*
X0091677Y0050468D02*
X0089575Y0051869D01*
X0087140Y0051869D02*
X0085738Y0051869D01*
X0085038Y0051168D01*
X0085038Y0049067D01*
X0087140Y0049067D01*
X0087840Y0049767D01*
X0087140Y0050468D01*
X0085038Y0050468D01*
X0083236Y0051869D02*
X0081135Y0051869D01*
X0080434Y0051168D01*
X0080434Y0049767D01*
X0081135Y0049067D01*
X0083236Y0049067D01*
X0083236Y0053270D01*
X0078632Y0053270D02*
X0077932Y0053270D01*
X0077932Y0049067D01*
X0078632Y0049067D02*
X0077231Y0049067D01*
X0075563Y0049767D02*
X0075563Y0051168D01*
X0074863Y0051869D01*
X0073461Y0051869D01*
X0072761Y0051168D01*
X0072761Y0050468D01*
X0075563Y0050468D01*
X0075563Y0049767D02*
X0074863Y0049067D01*
X0073461Y0049067D01*
X0089575Y0049067D02*
X0091677Y0050468D01*
M02*
