%
M48
M72
T01C0.0236
T02C0.0276
T03C0.0320
T04C0.0400
T05C0.0800
T06C0.1250
%
T01
X4600Y2867
X5100Y3867
X5850Y4992
X6350Y5492
T02
X14100Y5117
X14100Y4117
T03
X13100Y3117
X12100Y3117
X11100Y3117
X10100Y3117
X9100Y3117
X8100Y3117
X7100Y3117
X7100Y6117
X8100Y6117
X9100Y6117
X10100Y6117
X11100Y6117
X12100Y6117
X13100Y6117
T04
X1100Y1117
X2100Y1117
X3100Y1117
X4100Y1117
X5100Y1117
X6100Y1117
X7100Y1117
X8100Y1117
X9100Y1117
X10100Y1117
X11100Y1117
X12100Y1117
X13100Y1117
X14100Y1117
X15100Y1117
X15100Y3117
X15100Y6117
X5600Y6117
X4600Y6117
X3600Y6117
X3600Y7117
X4600Y7117
X5600Y7117
X3630Y4382
X1070Y4382
X1070Y2602
X3630Y2602
T05
X15100Y4117
X15100Y5117
T06
X1600Y6617
M30
