G75*
%MOIN*%
%OFA0B0*%
%FSLAX25Y25*%
%IPPOS*%
%LPD*%
%AMOC8*
5,1,8,0,0,1.08239X$1,22.5*
%
%ADD10C,0.00000*%
%ADD11C,0.04800*%
%ADD12R,0.07400X0.07400*%
%ADD13OC8,0.07400*%
%ADD14C,0.08000*%
%ADD15C,0.07400*%
%ADD16C,0.06500*%
%ADD17C,0.03200*%
%ADD18C,0.01200*%
%ADD19C,0.03762*%
D10*
X0011000Y0001167D02*
X0151000Y0001167D01*
X0151242Y0001170D01*
X0151483Y0001179D01*
X0151724Y0001193D01*
X0151965Y0001214D01*
X0152205Y0001240D01*
X0152445Y0001272D01*
X0152684Y0001310D01*
X0152921Y0001353D01*
X0153158Y0001403D01*
X0153393Y0001458D01*
X0153627Y0001518D01*
X0153859Y0001585D01*
X0154090Y0001656D01*
X0154319Y0001734D01*
X0154546Y0001817D01*
X0154771Y0001905D01*
X0154994Y0001999D01*
X0155214Y0002098D01*
X0155432Y0002203D01*
X0155647Y0002312D01*
X0155860Y0002427D01*
X0156070Y0002547D01*
X0156276Y0002672D01*
X0156480Y0002802D01*
X0156681Y0002937D01*
X0156878Y0003077D01*
X0157072Y0003221D01*
X0157262Y0003370D01*
X0157448Y0003524D01*
X0157631Y0003682D01*
X0157810Y0003844D01*
X0157985Y0004011D01*
X0158156Y0004182D01*
X0158323Y0004357D01*
X0158485Y0004536D01*
X0158643Y0004719D01*
X0158797Y0004905D01*
X0158946Y0005095D01*
X0159090Y0005289D01*
X0159230Y0005486D01*
X0159365Y0005687D01*
X0159495Y0005891D01*
X0159620Y0006097D01*
X0159740Y0006307D01*
X0159855Y0006520D01*
X0159964Y0006735D01*
X0160069Y0006953D01*
X0160168Y0007173D01*
X0160262Y0007396D01*
X0160350Y0007621D01*
X0160433Y0007848D01*
X0160511Y0008077D01*
X0160582Y0008308D01*
X0160649Y0008540D01*
X0160709Y0008774D01*
X0160764Y0009009D01*
X0160814Y0009246D01*
X0160857Y0009483D01*
X0160895Y0009722D01*
X0160927Y0009962D01*
X0160953Y0010202D01*
X0160974Y0010443D01*
X0160988Y0010684D01*
X0160997Y0010925D01*
X0161000Y0011167D01*
X0161000Y0071167D01*
X0160997Y0071409D01*
X0160988Y0071650D01*
X0160974Y0071891D01*
X0160953Y0072132D01*
X0160927Y0072372D01*
X0160895Y0072612D01*
X0160857Y0072851D01*
X0160814Y0073088D01*
X0160764Y0073325D01*
X0160709Y0073560D01*
X0160649Y0073794D01*
X0160582Y0074026D01*
X0160511Y0074257D01*
X0160433Y0074486D01*
X0160350Y0074713D01*
X0160262Y0074938D01*
X0160168Y0075161D01*
X0160069Y0075381D01*
X0159964Y0075599D01*
X0159855Y0075814D01*
X0159740Y0076027D01*
X0159620Y0076237D01*
X0159495Y0076443D01*
X0159365Y0076647D01*
X0159230Y0076848D01*
X0159090Y0077045D01*
X0158946Y0077239D01*
X0158797Y0077429D01*
X0158643Y0077615D01*
X0158485Y0077798D01*
X0158323Y0077977D01*
X0158156Y0078152D01*
X0157985Y0078323D01*
X0157810Y0078490D01*
X0157631Y0078652D01*
X0157448Y0078810D01*
X0157262Y0078964D01*
X0157072Y0079113D01*
X0156878Y0079257D01*
X0156681Y0079397D01*
X0156480Y0079532D01*
X0156276Y0079662D01*
X0156070Y0079787D01*
X0155860Y0079907D01*
X0155647Y0080022D01*
X0155432Y0080131D01*
X0155214Y0080236D01*
X0154994Y0080335D01*
X0154771Y0080429D01*
X0154546Y0080517D01*
X0154319Y0080600D01*
X0154090Y0080678D01*
X0153859Y0080749D01*
X0153627Y0080816D01*
X0153393Y0080876D01*
X0153158Y0080931D01*
X0152921Y0080981D01*
X0152684Y0081024D01*
X0152445Y0081062D01*
X0152205Y0081094D01*
X0151965Y0081120D01*
X0151724Y0081141D01*
X0151483Y0081155D01*
X0151242Y0081164D01*
X0151000Y0081167D01*
X0016000Y0081167D01*
X0009750Y0066167D02*
X0009752Y0066325D01*
X0009758Y0066482D01*
X0009768Y0066640D01*
X0009782Y0066797D01*
X0009800Y0066953D01*
X0009821Y0067110D01*
X0009847Y0067265D01*
X0009877Y0067420D01*
X0009910Y0067574D01*
X0009948Y0067727D01*
X0009989Y0067880D01*
X0010034Y0068031D01*
X0010083Y0068181D01*
X0010136Y0068329D01*
X0010192Y0068477D01*
X0010253Y0068622D01*
X0010316Y0068767D01*
X0010384Y0068909D01*
X0010455Y0069050D01*
X0010529Y0069189D01*
X0010607Y0069326D01*
X0010689Y0069461D01*
X0010773Y0069594D01*
X0010862Y0069725D01*
X0010953Y0069853D01*
X0011048Y0069980D01*
X0011145Y0070103D01*
X0011246Y0070225D01*
X0011350Y0070343D01*
X0011457Y0070459D01*
X0011567Y0070572D01*
X0011679Y0070683D01*
X0011795Y0070790D01*
X0011913Y0070895D01*
X0012033Y0070997D01*
X0012156Y0071095D01*
X0012282Y0071191D01*
X0012410Y0071283D01*
X0012540Y0071372D01*
X0012672Y0071458D01*
X0012807Y0071540D01*
X0012944Y0071619D01*
X0013082Y0071694D01*
X0013222Y0071766D01*
X0013365Y0071834D01*
X0013508Y0071899D01*
X0013654Y0071960D01*
X0013801Y0072017D01*
X0013949Y0072071D01*
X0014099Y0072121D01*
X0014249Y0072167D01*
X0014401Y0072209D01*
X0014554Y0072248D01*
X0014708Y0072282D01*
X0014863Y0072313D01*
X0015018Y0072339D01*
X0015174Y0072362D01*
X0015331Y0072381D01*
X0015488Y0072396D01*
X0015645Y0072407D01*
X0015803Y0072414D01*
X0015961Y0072417D01*
X0016118Y0072416D01*
X0016276Y0072411D01*
X0016433Y0072402D01*
X0016591Y0072389D01*
X0016747Y0072372D01*
X0016904Y0072351D01*
X0017059Y0072327D01*
X0017214Y0072298D01*
X0017369Y0072265D01*
X0017522Y0072229D01*
X0017675Y0072188D01*
X0017826Y0072144D01*
X0017976Y0072096D01*
X0018125Y0072045D01*
X0018273Y0071989D01*
X0018419Y0071930D01*
X0018564Y0071867D01*
X0018707Y0071800D01*
X0018848Y0071730D01*
X0018987Y0071657D01*
X0019125Y0071580D01*
X0019261Y0071499D01*
X0019394Y0071415D01*
X0019525Y0071328D01*
X0019654Y0071237D01*
X0019781Y0071143D01*
X0019906Y0071046D01*
X0020027Y0070946D01*
X0020147Y0070843D01*
X0020263Y0070737D01*
X0020377Y0070628D01*
X0020489Y0070516D01*
X0020597Y0070402D01*
X0020702Y0070284D01*
X0020805Y0070164D01*
X0020904Y0070042D01*
X0021000Y0069917D01*
X0021093Y0069789D01*
X0021183Y0069660D01*
X0021269Y0069528D01*
X0021353Y0069394D01*
X0021432Y0069258D01*
X0021509Y0069120D01*
X0021581Y0068980D01*
X0021650Y0068838D01*
X0021716Y0068695D01*
X0021778Y0068550D01*
X0021836Y0068403D01*
X0021891Y0068255D01*
X0021942Y0068106D01*
X0021989Y0067955D01*
X0022032Y0067804D01*
X0022071Y0067651D01*
X0022107Y0067497D01*
X0022138Y0067343D01*
X0022166Y0067188D01*
X0022190Y0067032D01*
X0022210Y0066875D01*
X0022226Y0066718D01*
X0022238Y0066561D01*
X0022246Y0066404D01*
X0022250Y0066246D01*
X0022250Y0066088D01*
X0022246Y0065930D01*
X0022238Y0065773D01*
X0022226Y0065616D01*
X0022210Y0065459D01*
X0022190Y0065302D01*
X0022166Y0065146D01*
X0022138Y0064991D01*
X0022107Y0064837D01*
X0022071Y0064683D01*
X0022032Y0064530D01*
X0021989Y0064379D01*
X0021942Y0064228D01*
X0021891Y0064079D01*
X0021836Y0063931D01*
X0021778Y0063784D01*
X0021716Y0063639D01*
X0021650Y0063496D01*
X0021581Y0063354D01*
X0021509Y0063214D01*
X0021432Y0063076D01*
X0021353Y0062940D01*
X0021269Y0062806D01*
X0021183Y0062674D01*
X0021093Y0062545D01*
X0021000Y0062417D01*
X0020904Y0062292D01*
X0020805Y0062170D01*
X0020702Y0062050D01*
X0020597Y0061932D01*
X0020489Y0061818D01*
X0020377Y0061706D01*
X0020263Y0061597D01*
X0020147Y0061491D01*
X0020027Y0061388D01*
X0019906Y0061288D01*
X0019781Y0061191D01*
X0019654Y0061097D01*
X0019525Y0061006D01*
X0019394Y0060919D01*
X0019261Y0060835D01*
X0019125Y0060754D01*
X0018987Y0060677D01*
X0018848Y0060604D01*
X0018707Y0060534D01*
X0018564Y0060467D01*
X0018419Y0060404D01*
X0018273Y0060345D01*
X0018125Y0060289D01*
X0017976Y0060238D01*
X0017826Y0060190D01*
X0017675Y0060146D01*
X0017522Y0060105D01*
X0017369Y0060069D01*
X0017214Y0060036D01*
X0017059Y0060007D01*
X0016904Y0059983D01*
X0016747Y0059962D01*
X0016591Y0059945D01*
X0016433Y0059932D01*
X0016276Y0059923D01*
X0016118Y0059918D01*
X0015961Y0059917D01*
X0015803Y0059920D01*
X0015645Y0059927D01*
X0015488Y0059938D01*
X0015331Y0059953D01*
X0015174Y0059972D01*
X0015018Y0059995D01*
X0014863Y0060021D01*
X0014708Y0060052D01*
X0014554Y0060086D01*
X0014401Y0060125D01*
X0014249Y0060167D01*
X0014099Y0060213D01*
X0013949Y0060263D01*
X0013801Y0060317D01*
X0013654Y0060374D01*
X0013508Y0060435D01*
X0013365Y0060500D01*
X0013222Y0060568D01*
X0013082Y0060640D01*
X0012944Y0060715D01*
X0012807Y0060794D01*
X0012672Y0060876D01*
X0012540Y0060962D01*
X0012410Y0061051D01*
X0012282Y0061143D01*
X0012156Y0061239D01*
X0012033Y0061337D01*
X0011913Y0061439D01*
X0011795Y0061544D01*
X0011679Y0061651D01*
X0011567Y0061762D01*
X0011457Y0061875D01*
X0011350Y0061991D01*
X0011246Y0062109D01*
X0011145Y0062231D01*
X0011048Y0062354D01*
X0010953Y0062481D01*
X0010862Y0062609D01*
X0010773Y0062740D01*
X0010689Y0062873D01*
X0010607Y0063008D01*
X0010529Y0063145D01*
X0010455Y0063284D01*
X0010384Y0063425D01*
X0010316Y0063567D01*
X0010253Y0063712D01*
X0010192Y0063857D01*
X0010136Y0064005D01*
X0010083Y0064153D01*
X0010034Y0064303D01*
X0009989Y0064454D01*
X0009948Y0064607D01*
X0009910Y0064760D01*
X0009877Y0064914D01*
X0009847Y0065069D01*
X0009821Y0065224D01*
X0009800Y0065381D01*
X0009782Y0065537D01*
X0009768Y0065694D01*
X0009758Y0065852D01*
X0009752Y0066009D01*
X0009750Y0066167D01*
X0001000Y0066167D02*
X0001004Y0066529D01*
X0001018Y0066892D01*
X0001039Y0067254D01*
X0001070Y0067615D01*
X0001109Y0067975D01*
X0001157Y0068334D01*
X0001214Y0068692D01*
X0001279Y0069049D01*
X0001353Y0069404D01*
X0001436Y0069757D01*
X0001527Y0070108D01*
X0001626Y0070456D01*
X0001734Y0070802D01*
X0001850Y0071146D01*
X0001975Y0071486D01*
X0002107Y0071823D01*
X0002248Y0072157D01*
X0002397Y0072488D01*
X0002554Y0072815D01*
X0002718Y0073138D01*
X0002890Y0073457D01*
X0003070Y0073771D01*
X0003258Y0074082D01*
X0003453Y0074387D01*
X0003655Y0074688D01*
X0003865Y0074984D01*
X0004081Y0075274D01*
X0004305Y0075560D01*
X0004535Y0075840D01*
X0004772Y0076114D01*
X0005016Y0076382D01*
X0005266Y0076645D01*
X0005522Y0076901D01*
X0005785Y0077151D01*
X0006053Y0077395D01*
X0006327Y0077632D01*
X0006607Y0077862D01*
X0006893Y0078086D01*
X0007183Y0078302D01*
X0007479Y0078512D01*
X0007780Y0078714D01*
X0008085Y0078909D01*
X0008396Y0079097D01*
X0008710Y0079277D01*
X0009029Y0079449D01*
X0009352Y0079613D01*
X0009679Y0079770D01*
X0010010Y0079919D01*
X0010344Y0080060D01*
X0010681Y0080192D01*
X0011021Y0080317D01*
X0011365Y0080433D01*
X0011711Y0080541D01*
X0012059Y0080640D01*
X0012410Y0080731D01*
X0012763Y0080814D01*
X0013118Y0080888D01*
X0013475Y0080953D01*
X0013833Y0081010D01*
X0014192Y0081058D01*
X0014552Y0081097D01*
X0014913Y0081128D01*
X0015275Y0081149D01*
X0015638Y0081163D01*
X0016000Y0081167D01*
X0001000Y0066167D02*
X0001000Y0011167D01*
X0001003Y0010925D01*
X0001012Y0010684D01*
X0001026Y0010443D01*
X0001047Y0010202D01*
X0001073Y0009962D01*
X0001105Y0009722D01*
X0001143Y0009483D01*
X0001186Y0009246D01*
X0001236Y0009009D01*
X0001291Y0008774D01*
X0001351Y0008540D01*
X0001418Y0008308D01*
X0001489Y0008077D01*
X0001567Y0007848D01*
X0001650Y0007621D01*
X0001738Y0007396D01*
X0001832Y0007173D01*
X0001931Y0006953D01*
X0002036Y0006735D01*
X0002145Y0006520D01*
X0002260Y0006307D01*
X0002380Y0006097D01*
X0002505Y0005891D01*
X0002635Y0005687D01*
X0002770Y0005486D01*
X0002910Y0005289D01*
X0003054Y0005095D01*
X0003203Y0004905D01*
X0003357Y0004719D01*
X0003515Y0004536D01*
X0003677Y0004357D01*
X0003844Y0004182D01*
X0004015Y0004011D01*
X0004190Y0003844D01*
X0004369Y0003682D01*
X0004552Y0003524D01*
X0004738Y0003370D01*
X0004928Y0003221D01*
X0005122Y0003077D01*
X0005319Y0002937D01*
X0005520Y0002802D01*
X0005724Y0002672D01*
X0005930Y0002547D01*
X0006140Y0002427D01*
X0006353Y0002312D01*
X0006568Y0002203D01*
X0006786Y0002098D01*
X0007006Y0001999D01*
X0007229Y0001905D01*
X0007454Y0001817D01*
X0007681Y0001734D01*
X0007910Y0001656D01*
X0008141Y0001585D01*
X0008373Y0001518D01*
X0008607Y0001458D01*
X0008842Y0001403D01*
X0009079Y0001353D01*
X0009316Y0001310D01*
X0009555Y0001272D01*
X0009795Y0001240D01*
X0010035Y0001214D01*
X0010276Y0001193D01*
X0010517Y0001179D01*
X0010758Y0001170D01*
X0011000Y0001167D01*
X0147000Y0041167D02*
X0147002Y0041293D01*
X0147008Y0041419D01*
X0147018Y0041545D01*
X0147032Y0041671D01*
X0147050Y0041796D01*
X0147072Y0041920D01*
X0147097Y0042044D01*
X0147127Y0042167D01*
X0147160Y0042288D01*
X0147198Y0042409D01*
X0147239Y0042528D01*
X0147284Y0042647D01*
X0147332Y0042763D01*
X0147384Y0042878D01*
X0147440Y0042991D01*
X0147500Y0043103D01*
X0147563Y0043212D01*
X0147629Y0043320D01*
X0147698Y0043425D01*
X0147771Y0043528D01*
X0147848Y0043629D01*
X0147927Y0043727D01*
X0148009Y0043823D01*
X0148095Y0043916D01*
X0148183Y0044007D01*
X0148274Y0044094D01*
X0148368Y0044179D01*
X0148464Y0044260D01*
X0148563Y0044339D01*
X0148664Y0044414D01*
X0148768Y0044486D01*
X0148874Y0044555D01*
X0148982Y0044621D01*
X0149092Y0044683D01*
X0149204Y0044741D01*
X0149317Y0044796D01*
X0149433Y0044847D01*
X0149550Y0044895D01*
X0149668Y0044939D01*
X0149788Y0044979D01*
X0149909Y0045015D01*
X0150031Y0045048D01*
X0150154Y0045077D01*
X0150278Y0045101D01*
X0150402Y0045122D01*
X0150527Y0045139D01*
X0150653Y0045152D01*
X0150779Y0045161D01*
X0150905Y0045166D01*
X0151032Y0045167D01*
X0151158Y0045164D01*
X0151284Y0045157D01*
X0151410Y0045146D01*
X0151535Y0045131D01*
X0151660Y0045112D01*
X0151784Y0045089D01*
X0151908Y0045063D01*
X0152030Y0045032D01*
X0152152Y0044998D01*
X0152272Y0044959D01*
X0152391Y0044917D01*
X0152509Y0044872D01*
X0152625Y0044822D01*
X0152740Y0044769D01*
X0152852Y0044712D01*
X0152963Y0044652D01*
X0153072Y0044588D01*
X0153179Y0044521D01*
X0153284Y0044451D01*
X0153387Y0044377D01*
X0153487Y0044300D01*
X0153585Y0044220D01*
X0153680Y0044137D01*
X0153772Y0044051D01*
X0153862Y0043962D01*
X0153949Y0043870D01*
X0154032Y0043776D01*
X0154113Y0043679D01*
X0154191Y0043579D01*
X0154266Y0043477D01*
X0154337Y0043373D01*
X0154405Y0043266D01*
X0154469Y0043158D01*
X0154530Y0043047D01*
X0154588Y0042935D01*
X0154642Y0042821D01*
X0154692Y0042705D01*
X0154739Y0042588D01*
X0154782Y0042469D01*
X0154821Y0042349D01*
X0154857Y0042228D01*
X0154888Y0042105D01*
X0154916Y0041982D01*
X0154940Y0041858D01*
X0154960Y0041733D01*
X0154976Y0041608D01*
X0154988Y0041482D01*
X0154996Y0041356D01*
X0155000Y0041230D01*
X0155000Y0041104D01*
X0154996Y0040978D01*
X0154988Y0040852D01*
X0154976Y0040726D01*
X0154960Y0040601D01*
X0154940Y0040476D01*
X0154916Y0040352D01*
X0154888Y0040229D01*
X0154857Y0040106D01*
X0154821Y0039985D01*
X0154782Y0039865D01*
X0154739Y0039746D01*
X0154692Y0039629D01*
X0154642Y0039513D01*
X0154588Y0039399D01*
X0154530Y0039287D01*
X0154469Y0039176D01*
X0154405Y0039068D01*
X0154337Y0038961D01*
X0154266Y0038857D01*
X0154191Y0038755D01*
X0154113Y0038655D01*
X0154032Y0038558D01*
X0153949Y0038464D01*
X0153862Y0038372D01*
X0153772Y0038283D01*
X0153680Y0038197D01*
X0153585Y0038114D01*
X0153487Y0038034D01*
X0153387Y0037957D01*
X0153284Y0037883D01*
X0153179Y0037813D01*
X0153072Y0037746D01*
X0152963Y0037682D01*
X0152852Y0037622D01*
X0152740Y0037565D01*
X0152625Y0037512D01*
X0152509Y0037462D01*
X0152391Y0037417D01*
X0152272Y0037375D01*
X0152152Y0037336D01*
X0152030Y0037302D01*
X0151908Y0037271D01*
X0151784Y0037245D01*
X0151660Y0037222D01*
X0151535Y0037203D01*
X0151410Y0037188D01*
X0151284Y0037177D01*
X0151158Y0037170D01*
X0151032Y0037167D01*
X0150905Y0037168D01*
X0150779Y0037173D01*
X0150653Y0037182D01*
X0150527Y0037195D01*
X0150402Y0037212D01*
X0150278Y0037233D01*
X0150154Y0037257D01*
X0150031Y0037286D01*
X0149909Y0037319D01*
X0149788Y0037355D01*
X0149668Y0037395D01*
X0149550Y0037439D01*
X0149433Y0037487D01*
X0149317Y0037538D01*
X0149204Y0037593D01*
X0149092Y0037651D01*
X0148982Y0037713D01*
X0148874Y0037779D01*
X0148768Y0037848D01*
X0148664Y0037920D01*
X0148563Y0037995D01*
X0148464Y0038074D01*
X0148368Y0038155D01*
X0148274Y0038240D01*
X0148183Y0038327D01*
X0148095Y0038418D01*
X0148009Y0038511D01*
X0147927Y0038607D01*
X0147848Y0038705D01*
X0147771Y0038806D01*
X0147698Y0038909D01*
X0147629Y0039014D01*
X0147563Y0039122D01*
X0147500Y0039231D01*
X0147440Y0039343D01*
X0147384Y0039456D01*
X0147332Y0039571D01*
X0147284Y0039687D01*
X0147239Y0039806D01*
X0147198Y0039925D01*
X0147160Y0040046D01*
X0147127Y0040167D01*
X0147097Y0040290D01*
X0147072Y0040414D01*
X0147050Y0040538D01*
X0147032Y0040663D01*
X0147018Y0040789D01*
X0147008Y0040915D01*
X0147002Y0041041D01*
X0147000Y0041167D01*
X0147000Y0051167D02*
X0147002Y0051293D01*
X0147008Y0051419D01*
X0147018Y0051545D01*
X0147032Y0051671D01*
X0147050Y0051796D01*
X0147072Y0051920D01*
X0147097Y0052044D01*
X0147127Y0052167D01*
X0147160Y0052288D01*
X0147198Y0052409D01*
X0147239Y0052528D01*
X0147284Y0052647D01*
X0147332Y0052763D01*
X0147384Y0052878D01*
X0147440Y0052991D01*
X0147500Y0053103D01*
X0147563Y0053212D01*
X0147629Y0053320D01*
X0147698Y0053425D01*
X0147771Y0053528D01*
X0147848Y0053629D01*
X0147927Y0053727D01*
X0148009Y0053823D01*
X0148095Y0053916D01*
X0148183Y0054007D01*
X0148274Y0054094D01*
X0148368Y0054179D01*
X0148464Y0054260D01*
X0148563Y0054339D01*
X0148664Y0054414D01*
X0148768Y0054486D01*
X0148874Y0054555D01*
X0148982Y0054621D01*
X0149092Y0054683D01*
X0149204Y0054741D01*
X0149317Y0054796D01*
X0149433Y0054847D01*
X0149550Y0054895D01*
X0149668Y0054939D01*
X0149788Y0054979D01*
X0149909Y0055015D01*
X0150031Y0055048D01*
X0150154Y0055077D01*
X0150278Y0055101D01*
X0150402Y0055122D01*
X0150527Y0055139D01*
X0150653Y0055152D01*
X0150779Y0055161D01*
X0150905Y0055166D01*
X0151032Y0055167D01*
X0151158Y0055164D01*
X0151284Y0055157D01*
X0151410Y0055146D01*
X0151535Y0055131D01*
X0151660Y0055112D01*
X0151784Y0055089D01*
X0151908Y0055063D01*
X0152030Y0055032D01*
X0152152Y0054998D01*
X0152272Y0054959D01*
X0152391Y0054917D01*
X0152509Y0054872D01*
X0152625Y0054822D01*
X0152740Y0054769D01*
X0152852Y0054712D01*
X0152963Y0054652D01*
X0153072Y0054588D01*
X0153179Y0054521D01*
X0153284Y0054451D01*
X0153387Y0054377D01*
X0153487Y0054300D01*
X0153585Y0054220D01*
X0153680Y0054137D01*
X0153772Y0054051D01*
X0153862Y0053962D01*
X0153949Y0053870D01*
X0154032Y0053776D01*
X0154113Y0053679D01*
X0154191Y0053579D01*
X0154266Y0053477D01*
X0154337Y0053373D01*
X0154405Y0053266D01*
X0154469Y0053158D01*
X0154530Y0053047D01*
X0154588Y0052935D01*
X0154642Y0052821D01*
X0154692Y0052705D01*
X0154739Y0052588D01*
X0154782Y0052469D01*
X0154821Y0052349D01*
X0154857Y0052228D01*
X0154888Y0052105D01*
X0154916Y0051982D01*
X0154940Y0051858D01*
X0154960Y0051733D01*
X0154976Y0051608D01*
X0154988Y0051482D01*
X0154996Y0051356D01*
X0155000Y0051230D01*
X0155000Y0051104D01*
X0154996Y0050978D01*
X0154988Y0050852D01*
X0154976Y0050726D01*
X0154960Y0050601D01*
X0154940Y0050476D01*
X0154916Y0050352D01*
X0154888Y0050229D01*
X0154857Y0050106D01*
X0154821Y0049985D01*
X0154782Y0049865D01*
X0154739Y0049746D01*
X0154692Y0049629D01*
X0154642Y0049513D01*
X0154588Y0049399D01*
X0154530Y0049287D01*
X0154469Y0049176D01*
X0154405Y0049068D01*
X0154337Y0048961D01*
X0154266Y0048857D01*
X0154191Y0048755D01*
X0154113Y0048655D01*
X0154032Y0048558D01*
X0153949Y0048464D01*
X0153862Y0048372D01*
X0153772Y0048283D01*
X0153680Y0048197D01*
X0153585Y0048114D01*
X0153487Y0048034D01*
X0153387Y0047957D01*
X0153284Y0047883D01*
X0153179Y0047813D01*
X0153072Y0047746D01*
X0152963Y0047682D01*
X0152852Y0047622D01*
X0152740Y0047565D01*
X0152625Y0047512D01*
X0152509Y0047462D01*
X0152391Y0047417D01*
X0152272Y0047375D01*
X0152152Y0047336D01*
X0152030Y0047302D01*
X0151908Y0047271D01*
X0151784Y0047245D01*
X0151660Y0047222D01*
X0151535Y0047203D01*
X0151410Y0047188D01*
X0151284Y0047177D01*
X0151158Y0047170D01*
X0151032Y0047167D01*
X0150905Y0047168D01*
X0150779Y0047173D01*
X0150653Y0047182D01*
X0150527Y0047195D01*
X0150402Y0047212D01*
X0150278Y0047233D01*
X0150154Y0047257D01*
X0150031Y0047286D01*
X0149909Y0047319D01*
X0149788Y0047355D01*
X0149668Y0047395D01*
X0149550Y0047439D01*
X0149433Y0047487D01*
X0149317Y0047538D01*
X0149204Y0047593D01*
X0149092Y0047651D01*
X0148982Y0047713D01*
X0148874Y0047779D01*
X0148768Y0047848D01*
X0148664Y0047920D01*
X0148563Y0047995D01*
X0148464Y0048074D01*
X0148368Y0048155D01*
X0148274Y0048240D01*
X0148183Y0048327D01*
X0148095Y0048418D01*
X0148009Y0048511D01*
X0147927Y0048607D01*
X0147848Y0048705D01*
X0147771Y0048806D01*
X0147698Y0048909D01*
X0147629Y0049014D01*
X0147563Y0049122D01*
X0147500Y0049231D01*
X0147440Y0049343D01*
X0147384Y0049456D01*
X0147332Y0049571D01*
X0147284Y0049687D01*
X0147239Y0049806D01*
X0147198Y0049925D01*
X0147160Y0050046D01*
X0147127Y0050167D01*
X0147097Y0050290D01*
X0147072Y0050414D01*
X0147050Y0050538D01*
X0147032Y0050663D01*
X0147018Y0050789D01*
X0147008Y0050915D01*
X0147002Y0051041D01*
X0147000Y0051167D01*
D11*
X0131000Y0058767D02*
X0131000Y0063567D01*
X0121000Y0063567D02*
X0121000Y0058767D01*
X0111000Y0058767D02*
X0111000Y0063567D01*
X0101000Y0063567D02*
X0101000Y0058767D01*
X0091000Y0058767D02*
X0091000Y0063567D01*
X0081000Y0063567D02*
X0081000Y0058767D01*
X0071000Y0058767D02*
X0071000Y0063567D01*
X0071000Y0033567D02*
X0071000Y0028767D01*
X0081000Y0028767D02*
X0081000Y0033567D01*
X0091000Y0033567D02*
X0091000Y0028767D01*
X0101000Y0028767D02*
X0101000Y0033567D01*
X0111000Y0033567D02*
X0111000Y0028767D01*
X0121000Y0028767D02*
X0121000Y0033567D01*
X0131000Y0033567D02*
X0131000Y0028767D01*
D12*
X0056000Y0071167D03*
D13*
X0046000Y0071167D03*
X0036000Y0071167D03*
X0036000Y0061167D03*
X0046000Y0061167D03*
X0056000Y0061167D03*
D14*
X0151000Y0061167D03*
X0151000Y0031167D03*
D15*
X0151000Y0011167D03*
X0141000Y0011167D03*
X0131000Y0011167D03*
X0121000Y0011167D03*
X0111000Y0011167D03*
X0101000Y0011167D03*
X0091000Y0011167D03*
X0081000Y0011167D03*
X0071000Y0011167D03*
X0061000Y0011167D03*
X0051000Y0011167D03*
X0041000Y0011167D03*
X0031000Y0011167D03*
X0021000Y0011167D03*
X0011000Y0011167D03*
X0010700Y0026017D03*
X0036300Y0026017D03*
X0036300Y0043817D03*
X0010700Y0043817D03*
D16*
X0141000Y0041167D03*
X0141000Y0051167D03*
D17*
X0141000Y0041167D02*
X0141000Y0031167D01*
X0151000Y0031167D01*
X0151000Y0011167D01*
X0131000Y0011167D02*
X0121000Y0021167D01*
X0121000Y0031167D01*
X0111000Y0031167D02*
X0111000Y0021167D01*
X0121000Y0011167D01*
X0111000Y0011167D02*
X0101000Y0021167D01*
X0101000Y0031167D01*
X0091000Y0031167D02*
X0091000Y0021167D01*
X0101000Y0011167D01*
X0091000Y0011167D02*
X0081000Y0021167D01*
X0081000Y0031167D01*
X0071000Y0031167D02*
X0071000Y0021167D01*
X0081000Y0011167D01*
X0071000Y0011167D02*
X0066000Y0016167D01*
X0066000Y0036167D01*
X0071000Y0041167D01*
X0071000Y0061167D01*
X0063500Y0054917D02*
X0063500Y0043667D01*
X0061000Y0041167D01*
X0061000Y0011167D01*
X0056000Y0016167D02*
X0051000Y0011167D01*
X0056000Y0016167D02*
X0056000Y0047417D01*
X0058500Y0049917D01*
X0051000Y0038667D02*
X0051000Y0021167D01*
X0041000Y0011167D01*
X0031000Y0011167D02*
X0046000Y0026167D01*
X0046000Y0028667D01*
X0131000Y0031167D02*
X0141000Y0031167D01*
D18*
X0086000Y0051167D02*
X0086000Y0069917D01*
X0078500Y0077417D01*
X0049750Y0077417D01*
X0046000Y0073667D01*
X0046000Y0071167D01*
X0051000Y0066167D02*
X0068500Y0066167D01*
X0071000Y0063667D01*
X0071000Y0061167D01*
X0076000Y0066167D02*
X0071000Y0071167D01*
X0056000Y0071167D01*
X0051000Y0066167D02*
X0046000Y0061167D01*
X0076000Y0066167D02*
X0076000Y0038667D01*
X0071000Y0033667D01*
X0071000Y0031167D01*
X0081000Y0031167D02*
X0081000Y0046167D01*
X0086000Y0051167D01*
D19*
X0063500Y0054917D03*
X0058500Y0049917D03*
X0051000Y0038667D03*
X0046000Y0028667D03*
M02*
